<svg width="90" height="90" viewBox="0 0 90 90" fill="none" xmlns="http://www.w3.org/2000/svg">
<g clip-path="url(#clip0_13_385)">
<path fill-rule="evenodd" clip-rule="evenodd" d="M64.7299 11.6269C63.6547 11.2873 62.5209 11.1743 61.3999 11.295C59.3426 11.5155 57.4404 12.4917 56.0617 14.0344H48.2261C32.8445 14.0344 20.3767 26.6344 20.3767 42.1734V44.5359L3.78861 54.1125C0.483923 55.8844 -0.191077 59.2706 0.0395482 61.5375C0.258923 63.6975 1.23486 65.6409 2.29236 67.1091C4.38767 70.02 8.32798 73.125 13.4158 73.125C18.8102 73.125 22.9558 70.3097 25.5095 68.5744L25.8245 68.3634C26.312 68.0334 26.747 67.7428 27.1295 67.4916C27.6077 67.8047 28.1252 68.1478 28.682 68.5209L29.0027 68.7347C33.3002 71.6063 39.7774 75.9375 48.2261 75.9375C58.1486 75.9375 64.9408 69.7809 70.0258 64.6819H81.6442C86.2595 64.6819 90.0002 60.9019 90.0002 56.2416V47.7984C90.0002 35.1788 83.1461 24.1847 73.0127 18.3909C72.6576 17.0053 71.955 15.733 70.9712 14.6946C69.9874 13.6562 68.755 12.8859 67.3905 12.4566L64.7299 11.6269ZM27.2505 61.0538C20.4442 57.6534 11.6383 57.7463 6.45205 59.0569L25.9089 47.8209C30.1502 47.8941 34.3633 48.15 38.5539 48.7575C47.9899 50.1244 57.3217 53.2772 66.6564 60.1284C61.4308 65.3766 56.0505 70.3097 48.2261 70.3097C41.4677 70.3097 36.1999 66.7941 31.7533 63.8269C31.1884 63.4484 30.6212 63.0734 30.0517 62.7019C29.6017 62.4094 29.1611 62.1319 28.7299 61.8694C28.2486 61.5765 27.7551 61.3043 27.2505 61.0538ZM25.9455 42.1931C31.1683 42.2803 36.4305 42.6375 41.7208 43.5684C52.5208 45.4697 63.4333 49.7672 74.3177 59.0541H81.6442C83.1827 59.0541 84.4286 57.7941 84.4286 56.2416V47.7984C84.4428 42.2878 82.8394 36.8942 79.8172 32.2862C76.795 27.6782 72.487 24.0584 67.427 21.8756C63.9989 20.4121 60.3095 19.6591 56.582 19.6622H48.2261C35.9214 19.6622 25.9455 29.7394 25.9455 42.1734V42.1931Z" fill="black"/>
</g>
<defs>
<clipPath id="clip0_13_385">
<rect width="90" height="90" fill="white"/>
</clipPath>
</defs>
</svg>
